<svg width="87" height="109" viewBox="0 0 87 109" fill="none" xmlns="http://www.w3.org/2000/svg">
<g clip-path="url(#clip0)">
<path d="M73.0574 95.2775C73.4484 95.4432 73.908 95.2677 74.084 94.8682C74.2502 94.4783 74.0742 94.0203 73.6733 93.8448C73.5756 93.7961 73.468 93.7766 73.3604 93.7766C73.0573 93.7766 72.7738 93.952 72.6467 94.2444C72.4707 94.6537 72.6565 95.1118 73.0574 95.2775Z" fill="url(#paint0_linear)"/>
<path d="M63.1332 98.406C63.8176 98.6984 64.6193 98.3865 64.9127 97.7042C65.206 97.022 64.8931 96.2228 64.2087 95.9305C64.0327 95.8525 63.8567 95.8232 63.6709 95.8232C63.1527 95.8232 62.6541 96.1254 62.4292 96.6419C62.1261 97.3242 62.4487 98.1136 63.1332 98.406Z" fill="url(#paint1_linear)"/>
<path d="M52.9255 99.1858C53.8348 99.5756 54.881 99.1565 55.2721 98.2501C55.6632 97.3438 55.2428 96.3009 54.3335 95.9111C54.1086 95.8136 53.8642 95.7649 53.6295 95.7649C52.9353 95.7649 52.2802 96.1645 51.9869 96.8467C51.6056 97.7531 52.026 98.8057 52.9255 99.1858Z" fill="url(#paint2_linear)"/>
<path d="M42.9329 97.6458C44.0084 98.1039 45.2502 97.6068 45.7097 96.5445C46.1693 95.4724 45.6804 94.2347 44.6049 93.7766C44.3311 93.6597 44.0476 93.6012 43.7738 93.6012C42.9525 93.6012 42.18 94.0788 41.8281 94.8779C41.3685 95.9402 41.8574 97.1877 42.9329 97.6458Z" fill="url(#paint3_linear)"/>
<path d="M33.6345 93.8546C34.8176 94.3614 36.1864 93.8156 36.6948 92.6363C37.2033 91.457 36.6557 90.0926 35.4726 89.5858C35.1695 89.4591 34.8567 89.3909 34.5536 89.3909C33.654 89.3909 32.7936 89.9172 32.4123 90.7943C31.9136 91.9833 32.4514 93.3575 33.6345 93.8546Z" fill="url(#paint4_linear)"/>
<path d="M25.4997 88.046C26.7512 88.582 28.1885 88.007 28.7262 86.7693C29.264 85.5218 28.6871 84.0891 27.4356 83.5531C27.1227 83.4166 26.7903 83.3484 26.4677 83.3484C25.5192 83.3484 24.6099 83.9039 24.2091 84.8298C23.6713 86.0675 24.2482 87.51 25.4997 88.046Z" fill="url(#paint5_linear)"/>
<path d="M18.9292 80.5025C20.2003 81.0483 21.6669 80.4635 22.2144 79.1965C22.762 77.9295 22.1753 76.4579 20.9042 75.9218C20.5816 75.7854 20.2492 75.7172 19.9167 75.7172C18.9488 75.7172 18.0199 76.2824 17.619 77.2278C17.0715 78.4948 17.6581 79.9665 18.9292 80.5025Z" fill="url(#paint6_linear)"/>
<path d="M14.2262 71.6336C15.4777 72.1696 16.9248 71.5946 17.4626 70.3471C18.0003 69.0996 17.4235 67.6572 16.1719 67.1212C15.8591 66.9847 15.5266 66.9165 15.204 66.9165C14.2556 66.9165 13.3462 67.472 12.9454 68.3979C12.4076 69.6551 12.9845 71.0976 14.2262 71.6336Z" fill="url(#paint7_linear)"/>
<path d="M11.6645 61.8485C12.8476 62.3553 14.2164 61.8095 14.7248 60.6302C15.2333 59.4509 14.6857 58.0865 13.5027 57.5699C13.1996 57.4432 12.8867 57.3848 12.5836 57.3848C11.6841 57.3848 10.8236 57.9111 10.4423 58.7882C9.93388 59.9772 10.4814 61.3417 11.6645 61.8485Z" fill="url(#paint8_linear)"/>
<path d="M11.3712 51.6541C12.4467 52.1122 13.6982 51.6249 14.1578 50.5528C14.6173 49.4807 14.1285 48.2332 13.0529 47.7752C12.7792 47.6582 12.4956 47.5997 12.2121 47.5997C11.3908 47.5997 10.6086 48.0773 10.2663 48.8765C9.79703 49.9485 10.2957 51.196 11.3712 51.6541Z" fill="url(#paint9_linear)"/>
<path d="M13.3462 41.5181C14.2555 41.908 15.3115 41.4889 15.7026 40.5825C16.0937 39.6761 15.6733 38.6236 14.764 38.2337C14.5293 38.1363 14.2946 38.0875 14.0502 38.0875C13.356 38.0875 12.6911 38.4969 12.3978 39.1693C12.0165 40.0757 12.4369 41.1283 13.3462 41.5181Z" fill="url(#paint10_linear)"/>
<path d="M17.5115 31.9378C18.2057 32.2302 18.9977 31.9183 19.3008 31.2263C19.5941 30.5441 19.2812 29.7449 18.587 29.4525C18.411 29.3746 18.235 29.3453 18.0493 29.3453C17.5213 29.3453 17.0226 29.6475 16.7977 30.164C16.5044 30.8462 16.8271 31.6454 17.5115 31.9378Z" fill="url(#paint11_linear)"/>
<path d="M23.6908 23.3516C24.0917 23.5173 24.5512 23.3419 24.7175 22.9423C24.8935 22.5427 24.7077 22.0846 24.3068 21.9189C24.209 21.8799 24.1015 21.8507 23.9939 21.8507C23.6908 21.8507 23.3975 22.0261 23.2704 22.3185C23.1139 22.7279 23.2899 23.1859 23.6908 23.3516Z" fill="url(#paint12_linear)"/>
<path d="M86.081 99.3124C86.3547 99.4293 86.6774 99.3026 86.7947 99.0297C86.9121 98.7568 86.785 98.4352 86.5112 98.3183C86.4427 98.289 86.3645 98.2695 86.2961 98.2695C86.0907 98.2695 85.8854 98.3962 85.7974 98.6009C85.6801 98.8835 85.8072 99.1954 86.081 99.3124Z" fill="url(#paint13_linear)"/>
<path d="M77.1443 104.244C77.643 104.458 78.2198 104.224 78.4252 103.737C78.6305 103.25 78.4056 102.675 77.9167 102.46C77.7896 102.402 77.6625 102.382 77.5256 102.382C77.1443 102.382 76.7826 102.607 76.6261 102.967C76.4208 103.464 76.6554 104.03 77.1443 104.244Z" fill="url(#paint14_linear)"/>
<path d="M67.5624 107.45C68.2468 107.743 69.0388 107.431 69.3321 106.749C69.6254 106.066 69.3125 105.277 68.6281 104.985C68.4521 104.907 68.2761 104.877 68.1001 104.877C67.5819 104.877 67.0833 105.18 66.8682 105.686C66.5651 106.369 66.878 107.158 67.5624 107.45Z" fill="url(#paint15_linear)"/>
<path d="M57.6382 108.864C58.4791 109.224 59.4471 108.834 59.8088 108.006C60.1706 107.168 59.7795 106.203 58.9386 105.842C58.7235 105.755 58.5084 105.706 58.2835 105.706C57.648 105.706 57.032 106.076 56.768 106.7C56.4063 107.538 56.7974 108.503 57.6382 108.864Z" fill="url(#paint16_linear)"/>
<path d="M47.6848 108.464C48.6527 108.883 49.7771 108.435 50.1976 107.47C50.618 106.505 50.1682 105.384 49.2003 104.965C48.9558 104.858 48.7016 104.809 48.4474 104.809C47.7043 104.809 47.0003 105.238 46.6972 105.959C46.267 106.924 46.7168 108.045 47.6848 108.464Z" fill="url(#paint17_linear)"/>
<path d="M38.0344 106.252C39.1099 106.71 40.3516 106.222 40.8112 105.15C41.2707 104.078 40.7818 102.84 39.7063 102.382C39.4325 102.265 39.149 102.207 38.8752 102.207C38.0539 102.207 37.2717 102.684 36.9295 103.484C36.4602 104.556 36.9588 105.793 38.0344 106.252Z" fill="url(#paint18_linear)"/>
<path d="M28.9903 102.314C30.144 102.811 31.4738 102.275 31.9724 101.135C32.4711 99.985 31.9333 98.6595 30.7795 98.1625C30.4862 98.0358 30.1831 97.9773 29.88 97.9773C29 97.9773 28.1592 98.4938 27.7974 99.3417C27.2988 100.492 27.8365 101.827 28.9903 102.314Z" fill="url(#paint19_linear)"/>
<path d="M20.8456 96.7882C22.058 97.3048 23.4562 96.7492 23.9744 95.5407C24.4926 94.3322 23.9353 92.9385 22.7228 92.422C22.4197 92.2855 22.0971 92.2271 21.7842 92.2271C20.8651 92.2271 19.9852 92.7631 19.5941 93.6695C19.0758 94.8682 19.6429 96.2717 20.8456 96.7882Z" fill="url(#paint20_linear)"/>
<path d="M13.8743 89.8685C15.116 90.4045 16.5631 89.8295 17.1008 88.582C17.6386 87.3345 17.0617 85.9018 15.8102 85.3658C15.4973 85.2294 15.1649 85.1611 14.8422 85.1611C13.8938 85.1611 12.9845 85.7167 12.5836 86.6425C12.0557 87.89 12.6325 89.3324 13.8743 89.8685Z" fill="url(#paint21_linear)"/>
<path d="M8.28152 81.7792C9.54282 82.325 11.0094 81.7402 11.557 80.4733C12.1045 79.216 11.5179 77.7541 10.2566 77.2083C9.93391 77.0719 9.60148 77.0037 9.26905 77.0037C8.30108 77.0037 7.38199 77.5689 6.98112 78.5046C6.43358 79.7715 7.02023 81.2335 8.28152 81.7792Z" fill="url(#paint22_linear)"/>
<path d="M4.27276 72.7934C5.53405 73.3392 7.00067 72.7544 7.54821 71.4874C8.09575 70.2302 7.5091 68.7683 6.24781 68.2225C5.92515 68.086 5.59272 68.0178 5.26028 68.0178C4.29231 68.0178 3.37323 68.5831 2.97235 69.5187C2.41504 70.7857 3.00169 72.2476 4.27276 72.7934Z" fill="url(#paint23_linear)"/>
<path d="M1.96529 63.2033C3.21681 63.7393 4.66387 63.1643 5.20164 61.9168C5.7394 60.6693 5.16253 59.2269 3.91101 58.6909C3.59813 58.5544 3.2657 58.4862 2.94304 58.4862C1.99462 58.4862 1.08532 59.0417 0.684442 59.9676C0.146681 61.2249 0.723552 62.6673 1.96529 63.2033Z" fill="url(#paint24_linear)"/>
<path d="M1.44707 53.311C2.65948 53.8276 4.06743 53.272 4.58564 52.0635C5.10385 50.855 4.54653 49.4516 3.33412 48.935C3.02124 48.7986 2.70837 48.7401 2.38571 48.7401C1.45685 48.7401 0.576875 49.2761 0.185776 50.1825C-0.322653 51.391 0.234663 52.7945 1.44707 53.311Z" fill="url(#paint25_linear)"/>
<path d="M2.71812 43.4479C3.87186 43.945 5.21138 43.4089 5.71003 42.2589C6.20868 41.1089 5.67092 39.7737 4.51718 39.2766C4.22385 39.1499 3.92075 39.0914 3.61765 39.0914C2.73768 39.0914 1.89681 39.608 1.52527 40.4656C1.02662 41.6157 1.5546 42.9509 2.71812 43.4479Z" fill="url(#paint26_linear)"/>
<path d="M5.73935 33.9163C6.81487 34.3744 8.05661 33.8871 8.52593 32.815C8.98547 31.7429 8.48682 30.4954 7.4113 30.0374C7.13753 29.9204 6.85398 29.8619 6.57044 29.8619C5.74913 29.8619 4.96693 30.3395 4.62472 31.1387C4.17496 32.2107 4.66383 33.4582 5.73935 33.9163Z" fill="url(#paint27_linear)"/>
<path d="M10.4423 25.0377C11.4103 25.4568 12.5445 25.0084 12.9649 24.0338C13.3854 23.0592 12.9356 21.9384 11.9578 21.5193C11.7134 21.4121 11.4494 21.3634 11.205 21.3634C10.4619 21.3634 9.75791 21.7922 9.44503 22.5232C9.0246 23.4978 9.46458 24.6186 10.4423 25.0377Z" fill="url(#paint28_linear)"/>
<path d="M16.6706 17.0849C17.5115 17.4455 18.4893 17.0557 18.851 16.2175C19.2128 15.3794 18.8217 14.4048 17.9808 14.0442C17.7657 13.9564 17.5408 13.9077 17.3257 13.9077C16.6804 13.9077 16.0644 14.2878 15.8004 14.9116C15.4387 15.7497 15.8298 16.7243 16.6706 17.0849Z" fill="url(#paint29_linear)"/>
<path d="M24.1993 10.3016C24.8837 10.594 25.6757 10.2821 25.9788 9.59988C26.2721 8.91766 25.9592 8.12823 25.2748 7.83584C25.0988 7.75788 24.9228 7.72864 24.737 7.72864C24.209 7.72864 23.7202 8.03077 23.4953 8.54731C23.202 9.21979 23.5148 10.0092 24.1993 10.3016Z" fill="url(#paint30_linear)"/>
<path d="M32.8035 4.90223C33.3021 5.11664 33.879 4.88274 34.0941 4.38569C34.3092 3.88864 34.0745 3.31362 33.5759 3.09921C33.4488 3.04073 33.3217 3.02124 33.1848 3.02124C32.8035 3.02124 32.4417 3.2454 32.2852 3.61575C32.0799 4.10305 32.3048 4.67807 32.8035 4.90223Z" fill="url(#paint31_linear)"/>
<path d="M42.2192 1.04283C42.493 1.15978 42.8156 1.03308 42.933 0.760193C43.0503 0.487303 42.9232 0.165683 42.6494 0.0487303C42.581 0.00974607 42.5125 0 42.4343 0C42.2192 0 42.0237 0.126699 41.9357 0.331366C41.8183 0.604256 41.9454 0.925876 42.2192 1.04283Z" fill="url(#paint32_linear)"/>
<path d="M69.821 88.046C70.1534 88.1921 70.5347 88.0362 70.6814 87.7048C70.8281 87.3735 70.6716 86.9934 70.3392 86.8472C70.2512 86.8082 70.1632 86.7985 70.085 86.7985C69.8308 86.7985 69.5863 86.9447 69.4886 87.1981C69.3321 87.5197 69.4886 87.9095 69.821 88.046Z" fill="url(#paint33_linear)"/>
<path d="M59.6524 90.7846C60.239 91.038 60.9235 90.7651 61.1777 90.1803C61.4319 89.5956 61.1581 88.9134 60.5715 88.66C60.4248 88.5917 60.2684 88.5625 60.1119 88.5625C59.6622 88.5625 59.232 88.8256 59.0462 89.2642C58.792 89.849 59.056 90.5312 59.6524 90.7846Z" fill="url(#paint34_linear)"/>
<path d="M49.2785 90.6287C50.0802 90.9699 50.9993 90.5995 51.3415 89.8101C51.6837 89.0109 51.3122 88.0948 50.5202 87.7536C50.3149 87.6659 50.1095 87.627 49.8944 87.627C49.2882 87.627 48.7016 87.9778 48.4474 88.5723C48.115 89.3617 48.4865 90.2779 49.2785 90.6287Z" fill="url(#paint35_linear)"/>
<path d="M39.4815 87.6269C40.4397 88.0362 41.5543 87.5976 41.9747 86.6425C42.3854 85.6874 41.9454 84.5764 40.9774 84.1573C40.733 84.0501 40.4788 84.0013 40.2344 84.0013C39.501 84.0013 38.7971 84.4302 38.494 85.1416C38.0735 86.1065 38.5135 87.2175 39.4815 87.6269Z" fill="url(#paint36_linear)"/>
<path d="M30.9848 82.0423C32.0701 82.5101 33.3314 82.0033 33.8007 80.9215C34.2701 79.8397 33.7616 78.5825 32.6763 78.1146C32.4026 77.9977 32.1092 77.9392 31.8355 77.9392C31.0044 77.9392 30.2124 78.4265 29.8702 79.2257C29.4009 80.327 29.8995 81.5842 30.9848 82.0423Z" fill="url(#paint37_linear)"/>
<path d="M24.4339 74.3332C25.6072 74.84 26.9761 74.2942 27.4747 73.1247C27.9832 71.9551 27.4356 70.5907 26.2623 70.0936C25.9592 69.9669 25.6561 69.9084 25.3432 69.9084C24.4437 69.9084 23.5931 70.4347 23.2117 71.3021C22.7131 72.4619 23.2606 73.8264 24.4339 74.3332Z" fill="url(#paint38_linear)"/>
<path d="M20.3078 65.0939C21.5398 65.6202 22.977 65.055 23.505 63.8269C24.033 62.5989 23.4659 61.1663 22.234 60.64C21.9211 60.5035 21.5984 60.4451 21.2758 60.4451C20.3371 60.4451 19.4376 60.9908 19.0367 61.9167C18.5087 63.135 19.0758 64.5579 20.3078 65.0939Z" fill="url(#paint39_linear)"/>
<path d="M18.9487 55.0457C20.21 55.5915 21.6766 55.0068 22.2242 53.7495C22.7619 52.4923 22.1851 51.0304 20.9238 50.4846C20.6011 50.3481 20.2687 50.2799 19.9362 50.2799C18.9683 50.2799 18.059 50.8452 17.6483 51.7808C17.1008 53.038 17.6776 54.5 18.9487 55.0457Z" fill="url(#paint40_linear)"/>
<path d="M20.4154 44.9586C21.6767 45.5044 23.1433 44.9196 23.6908 43.6623C24.2384 42.4051 23.6517 40.9432 22.3904 40.3974C22.0678 40.261 21.7353 40.1927 21.4029 40.1927C20.4349 40.1927 19.5158 40.758 19.115 41.6936C18.5674 42.9606 19.1541 44.4225 20.4154 44.9586Z" fill="url(#paint41_linear)"/>
<path d="M24.6197 35.6121C25.8614 36.1384 27.289 35.5731 27.8169 34.3451C28.3449 33.1171 27.7778 31.6845 26.5459 31.1582C26.233 31.0217 25.9005 30.9633 25.5877 30.9633C24.6393 30.9633 23.7495 31.509 23.3486 32.4349C22.8109 33.6532 23.378 35.0858 24.6197 35.6121Z" fill="url(#paint42_linear)"/>
<path d="M31.2488 27.7178C32.4319 28.2246 33.791 27.6788 34.2994 26.5093C34.8078 25.33 34.2603 23.9753 33.087 23.4685C32.7839 23.3418 32.4808 23.2833 32.1679 23.2833C31.2684 23.2833 30.408 23.8096 30.0364 24.6868C29.5182 25.8465 30.0658 27.211 31.2488 27.7178Z" fill="url(#paint43_linear)"/>
<path d="M39.7748 21.8506C40.8601 22.3184 42.1312 21.8116 42.6005 20.7298C43.0698 19.648 42.5614 18.381 41.4761 17.9132C41.2023 17.7963 40.909 17.7378 40.6254 17.7378C39.7943 17.7378 39.0024 18.2251 38.6504 19.034C38.1908 20.1256 38.6895 21.3828 39.7748 21.8506Z" fill="url(#paint44_linear)"/>
<path d="M49.5914 18.4396C50.5593 18.8489 51.674 18.4103 52.0944 17.4455C52.505 16.4806 52.065 15.3696 51.0971 14.9505C50.8526 14.8433 50.5984 14.7946 50.3442 14.7946C49.6109 14.7946 48.9069 15.2234 48.5941 15.9446C48.1736 16.9095 48.6234 18.0303 49.5914 18.4396Z" fill="url(#paint45_linear)"/>
<path d="M59.9262 17.7476C60.7279 18.0887 61.6568 17.7184 61.999 16.9192C62.3412 16.12 61.9697 15.1941 61.1679 14.853C60.9626 14.7653 60.7573 14.7263 60.5422 14.7263C59.936 14.7263 59.3493 15.0869 59.0951 15.6814C58.7529 16.4806 59.1244 17.3967 59.9262 17.7476Z" fill="url(#paint46_linear)"/>
<path d="M70.0263 19.7553C70.6227 20.0087 71.3072 19.7358 71.5614 19.1413C71.8156 18.5468 71.5418 17.8645 70.9552 17.6111C70.8085 17.5429 70.6423 17.5137 70.4956 17.5137C70.0459 17.5137 69.6157 17.7768 69.4201 18.2154C69.1659 18.8196 69.4397 19.5019 70.0263 19.7553Z" fill="url(#paint47_linear)"/>
<path d="M79.1291 24.2969C79.4616 24.4431 79.8527 24.2872 79.9896 23.9558C80.1362 23.6245 79.9798 23.2346 79.6473 23.0982C79.5594 23.0592 79.4714 23.0494 79.3931 23.0494C79.1389 23.0494 78.8945 23.1956 78.7869 23.449C78.6403 23.7706 78.7967 24.1605 79.1291 24.2969Z" fill="url(#paint48_linear)"/>
<path d="M85.9147 54.7533C86.3058 54.919 86.7653 54.7436 86.9413 54.344C87.1076 53.9542 86.9316 53.4961 86.5307 53.3207C86.4329 53.2817 86.3253 53.2524 86.2178 53.2524C85.9147 53.2524 85.6311 53.4279 85.504 53.7202C85.3378 54.1296 85.5236 54.5876 85.9147 54.7533Z" fill="url(#paint49_linear)"/>
<path d="M83.6855 64.8601C84.3699 65.1524 85.1717 64.8406 85.465 64.1583C85.7583 63.4761 85.4454 62.6769 84.761 62.3846C84.585 62.3066 84.409 62.2773 84.233 62.2773C83.705 62.2773 83.2064 62.5795 82.9913 63.096C82.6882 63.7782 83.0011 64.5677 83.6855 64.8601Z" fill="url(#paint50_linear)"/>
<path d="M78.4545 73.6607C79.3638 74.0506 80.41 73.6315 80.8011 72.7251C81.1922 71.8187 80.7717 70.7759 79.8624 70.3861C79.6278 70.2886 79.3931 70.2399 79.1584 70.2399C78.4642 70.2399 77.8092 70.6492 77.5158 71.3217C77.1345 72.2183 77.5549 73.2709 78.4545 73.6607Z" fill="url(#paint51_linear)"/>
<path d="M70.7792 80.2199C71.8547 80.678 73.0964 80.1809 73.556 79.1186C74.0155 78.0465 73.5168 76.8088 72.4511 76.3507C72.1773 76.2338 71.8938 76.1753 71.62 76.1753C70.7987 76.1753 70.0165 76.6528 69.6743 77.452C69.205 78.5241 69.7036 79.7618 70.7792 80.2199Z" fill="url(#paint52_linear)"/>
<path d="M61.4808 83.8259C62.6639 84.3327 64.0327 83.7869 64.5412 82.6076C65.0496 81.4284 64.502 80.0639 63.3288 79.5571C63.0257 79.4304 62.7128 79.3719 62.4097 79.3719C61.5102 79.3719 60.6497 79.8982 60.2684 80.7754C59.7502 81.9644 60.2978 83.3191 61.4808 83.8259Z" fill="url(#paint53_linear)"/>
<path d="M51.6055 84.1476C52.8473 84.6836 54.2943 84.1086 54.8321 82.8611C55.3698 81.6233 54.793 80.1809 53.5415 79.6449C53.2286 79.5084 52.8961 79.45 52.5735 79.45C51.6251 79.45 50.7158 80.0055 50.3149 80.9314C49.7869 82.1691 50.354 83.6115 51.6055 84.1476Z" fill="url(#paint54_linear)"/>
<path d="M42.2485 81.1359C43.5196 81.6817 44.996 81.0969 45.5338 79.8299C46.0813 78.5629 45.4947 77.101 44.2236 76.5553C43.9009 76.4188 43.5685 76.3506 43.2361 76.3506C42.2681 76.3506 41.3392 76.9159 40.9384 77.8612C40.3908 79.1185 40.9775 80.5901 42.2485 81.1359Z" fill="url(#paint55_linear)"/>
<path d="M34.4656 75.1422C35.7171 75.6782 37.1641 75.1032 37.7019 73.8557C38.2397 72.6082 37.6628 71.1658 36.4113 70.6297C36.0984 70.4933 35.766 70.4348 35.4433 70.4348C34.4851 70.4348 33.5856 70.9903 33.1847 71.9162C32.6372 73.1637 33.214 74.6061 34.4656 75.1422Z" fill="url(#paint56_linear)"/>
<path d="M29.1271 66.8386C30.3101 67.3454 31.679 66.7996 32.1972 65.6203C32.7056 64.441 32.1581 63.0766 30.975 62.5698C30.6719 62.4431 30.359 62.3749 30.0559 62.3749C29.1466 62.3749 28.296 62.9012 27.9147 63.7783C27.3965 64.9576 27.944 66.3318 29.1271 66.8386Z" fill="url(#paint57_linear)"/>
<path d="M26.8392 57.1412C27.9147 57.5992 29.1662 57.1119 29.6257 56.0399C30.0853 54.9678 29.5866 53.7203 28.5209 53.2622C28.2471 53.1453 27.9636 53.0868 27.68 53.0868C26.8587 53.0868 26.0765 53.5643 25.7343 54.3635C25.265 55.4356 25.7636 56.6831 26.8392 57.1412Z" fill="url(#paint58_linear)"/>
<path d="M27.8756 47.093C28.7849 47.4828 29.8409 47.0637 30.232 46.1574C30.6231 45.251 30.2026 44.1984 29.2933 43.8085C29.0587 43.7111 28.824 43.6624 28.5796 43.6624C27.8854 43.6624 27.2205 44.0717 26.9272 44.7442C26.5459 45.6506 26.9663 46.7031 27.8756 47.093Z" fill="url(#paint59_linear)"/>
<path d="M32.1385 37.7854C32.8327 38.0778 33.6247 37.7659 33.9278 37.074C34.2211 36.3917 33.9082 35.5926 33.214 35.2904C33.038 35.2125 32.862 35.1832 32.6763 35.1832C32.1483 35.1832 31.6496 35.4854 31.4248 36.0019C31.1314 36.6939 31.4541 37.493 32.1385 37.7854Z" fill="url(#paint60_linear)"/>
<path d="M39.1686 30.1933C39.5694 30.359 40.029 30.1835 40.1952 29.7839C40.3712 29.3941 40.1854 28.9263 39.7846 28.7606C39.6868 28.7216 39.5792 28.6924 39.4717 28.6924C39.1686 28.6924 38.8753 28.8678 38.7481 29.1602C38.5917 29.5695 38.7775 30.0276 39.1686 30.1933Z" fill="url(#paint61_linear)"/>
</g>
<defs>
<linearGradient id="paint0_linear" x1="-9.91167" y1="94.5656" x2="84.6438" y2="94.5656" gradientUnits="userSpaceOnUse">
<stop stop-color="#F39614"/>
<stop offset="1" stop-color="#FF6336"/>
</linearGradient>
<linearGradient id="paint1_linear" x1="-20.7643" y1="97.1711" x2="73.8158" y2="97.1711" gradientUnits="userSpaceOnUse">
<stop stop-color="#F39614"/>
<stop offset="1" stop-color="#FF6336"/>
</linearGradient>
<linearGradient id="paint2_linear" x1="-30.0759" y1="97.5529" x2="64.5257" y2="97.5529" gradientUnits="userSpaceOnUse">
<stop stop-color="#F39614"/>
<stop offset="1" stop-color="#FF6336"/>
</linearGradient>
<linearGradient id="paint3_linear" x1="-37.3672" y1="95.7073" x2="57.2199" y2="95.7073" gradientUnits="userSpaceOnUse">
<stop stop-color="#F39614"/>
<stop offset="1" stop-color="#FF6336"/>
</linearGradient>
<linearGradient id="paint4_linear" x1="-42.3333" y1="91.7271" x2="52.2708" y2="91.7271" gradientUnits="userSpaceOnUse">
<stop stop-color="#F39614"/>
<stop offset="1" stop-color="#FF6336"/>
</linearGradient>
<linearGradient id="paint5_linear" x1="-44.6596" y1="85.7968" x2="49.9322" y2="85.7968" gradientUnits="userSpaceOnUse">
<stop stop-color="#F39614"/>
<stop offset="1" stop-color="#FF6336"/>
</linearGradient>
<linearGradient id="paint6_linear" x1="-44.2723" y1="78.2145" x2="50.336" y2="78.2145" gradientUnits="userSpaceOnUse">
<stop stop-color="#F39614"/>
<stop offset="1" stop-color="#FF6336"/>
</linearGradient>
<linearGradient id="paint7_linear" x1="-41.1852" y1="69.3779" x2="53.4117" y2="69.3779" gradientUnits="userSpaceOnUse">
<stop stop-color="#F39614"/>
<stop offset="1" stop-color="#FF6336"/>
</linearGradient>
<linearGradient id="paint8_linear" x1="-35.5377" y1="59.7151" x2="59.0442" y2="59.7151" gradientUnits="userSpaceOnUse">
<stop stop-color="#F39614"/>
<stop offset="1" stop-color="#FF6336"/>
</linearGradient>
<linearGradient id="paint9_linear" x1="-27.6336" y1="49.7143" x2="66.9689" y2="49.7143" gradientUnits="userSpaceOnUse">
<stop stop-color="#F39614"/>
<stop offset="1" stop-color="#FF6336"/>
</linearGradient>
<linearGradient id="paint10_linear" x1="-17.8439" y1="39.8782" x2="76.7297" y2="39.8782" gradientUnits="userSpaceOnUse">
<stop stop-color="#F39614"/>
<stop offset="1" stop-color="#FF6336"/>
</linearGradient>
<linearGradient id="paint11_linear" x1="-6.69793" y1="30.6963" x2="87.9112" y2="30.6963" gradientUnits="userSpaceOnUse">
<stop stop-color="#F39614"/>
<stop offset="1" stop-color="#FF6336"/>
</linearGradient>
<linearGradient id="paint12_linear" x1="5.2921" y1="22.636" x2="99.8868" y2="22.636" gradientUnits="userSpaceOnUse">
<stop stop-color="#F39614"/>
<stop offset="1" stop-color="#FF6336"/>
</linearGradient>
<linearGradient id="paint13_linear" x1="-1.91066" y1="98.8186" x2="92.7018" y2="98.8186" gradientUnits="userSpaceOnUse">
<stop stop-color="#F39614"/>
<stop offset="1" stop-color="#FF6336"/>
</linearGradient>
<linearGradient id="paint14_linear" x1="-13.4673" y1="103.351" x2="81.1206" y2="103.351" gradientUnits="userSpaceOnUse">
<stop stop-color="#F39614"/>
<stop offset="1" stop-color="#FF6336"/>
</linearGradient>
<linearGradient id="paint15_linear" x1="-24.2544" y1="106.222" x2="70.3082" y2="106.222" gradientUnits="userSpaceOnUse">
<stop stop-color="#F39614"/>
<stop offset="1" stop-color="#FF6336"/>
</linearGradient>
<linearGradient id="paint16_linear" x1="-33.9874" y1="107.351" x2="60.6106" y2="107.351" gradientUnits="userSpaceOnUse">
<stop stop-color="#F39614"/>
<stop offset="1" stop-color="#FF6336"/>
</linearGradient>
<linearGradient id="paint17_linear" x1="-42.2507" y1="106.71" x2="52.3343" y2="106.71" gradientUnits="userSpaceOnUse">
<stop stop-color="#F39614"/>
<stop offset="1" stop-color="#FF6336"/>
</linearGradient>
<linearGradient id="paint18_linear" x1="-48.8521" y1="104.318" x2="45.7509" y2="104.318" gradientUnits="userSpaceOnUse">
<stop stop-color="#F39614"/>
<stop offset="1" stop-color="#FF6336"/>
</linearGradient>
<linearGradient id="paint19_linear" x1="-53.523" y1="100.241" x2="41.0879" y2="100.241" gradientUnits="userSpaceOnUse">
<stop stop-color="#F39614"/>
<stop offset="1" stop-color="#FF6336"/>
</linearGradient>
<linearGradient id="paint20_linear" x1="-56.1032" y1="94.6066" x2="38.5032" y2="94.6066" gradientUnits="userSpaceOnUse">
<stop stop-color="#F39614"/>
<stop offset="1" stop-color="#FF6336"/>
</linearGradient>
<linearGradient id="paint21_linear" x1="-56.5419" y1="87.6137" x2="38.0658" y2="87.6137" gradientUnits="userSpaceOnUse">
<stop stop-color="#F39614"/>
<stop offset="1" stop-color="#FF6336"/>
</linearGradient>
<linearGradient id="paint22_linear" x1="-54.8235" y1="79.4977" x2="39.7709" y2="79.4977" gradientUnits="userSpaceOnUse">
<stop stop-color="#F39614"/>
<stop offset="1" stop-color="#FF6336"/>
</linearGradient>
<linearGradient id="paint23_linear" x1="-51.0008" y1="70.5091" x2="43.6019" y2="70.5091" gradientUnits="userSpaceOnUse">
<stop stop-color="#F39614"/>
<stop offset="1" stop-color="#FF6336"/>
</linearGradient>
<linearGradient id="paint24_linear" x1="-45.1762" y1="60.9456" x2="49.4207" y2="60.9456" gradientUnits="userSpaceOnUse">
<stop stop-color="#F39614"/>
<stop offset="1" stop-color="#FF6336"/>
</linearGradient>
<linearGradient id="paint25_linear" x1="-37.5689" y1="51.1218" x2="57.0364" y2="51.1218" gradientUnits="userSpaceOnUse">
<stop stop-color="#F39614"/>
<stop offset="1" stop-color="#FF6336"/>
</linearGradient>
<linearGradient id="paint26_linear" x1="-28.421" y1="41.3594" x2="66.18" y2="41.3594" gradientUnits="userSpaceOnUse">
<stop stop-color="#F39614"/>
<stop offset="1" stop-color="#FF6336"/>
</linearGradient>
<linearGradient id="paint27_linear" x1="-18.0271" y1="31.9759" x2="76.5633" y2="31.9759" gradientUnits="userSpaceOnUse">
<stop stop-color="#F39614"/>
<stop offset="1" stop-color="#FF6336"/>
</linearGradient>
<linearGradient id="paint28_linear" x1="-6.73249" y1="23.2819" x2="87.8892" y2="23.2819" gradientUnits="userSpaceOnUse">
<stop stop-color="#F39614"/>
<stop offset="1" stop-color="#FF6336"/>
</linearGradient>
<linearGradient id="paint29_linear" x1="5.11552" y1="15.5659" x2="99.6916" y2="15.5659" gradientUnits="userSpaceOnUse">
<stop stop-color="#F39614"/>
<stop offset="1" stop-color="#FF6336"/>
</linearGradient>
<linearGradient id="paint30_linear" x1="17.1004" y1="9.06551" x2="111.718" y2="9.06551" gradientUnits="userSpaceOnUse">
<stop stop-color="#F39614"/>
<stop offset="1" stop-color="#FF6336"/>
</linearGradient>
<linearGradient id="paint31_linear" x1="28.8509" y1="3.9975" x2="123.426" y2="3.9975" gradientUnits="userSpaceOnUse">
<stop stop-color="#F39614"/>
<stop offset="1" stop-color="#FF6336"/>
</linearGradient>
<linearGradient id="paint32_linear" x1="39.9695" y1="0.54315" x2="134.598" y2="0.54315" gradientUnits="userSpaceOnUse">
<stop stop-color="#F39614"/>
<stop offset="1" stop-color="#FF6336"/>
</linearGradient>
<linearGradient id="paint33_linear" x1="-6.99073" y1="87.4501" x2="87.5839" y2="87.4501" gradientUnits="userSpaceOnUse">
<stop stop-color="#F39614"/>
<stop offset="1" stop-color="#FF6336"/>
</linearGradient>
<linearGradient id="paint34_linear" x1="-17.8031" y1="89.7196" x2="76.7963" y2="89.7196" gradientUnits="userSpaceOnUse">
<stop stop-color="#F39614"/>
<stop offset="1" stop-color="#FF6336"/>
</linearGradient>
<linearGradient id="paint35_linear" x1="-26.4936" y1="89.1843" x2="68.1049" y2="89.1843" gradientUnits="userSpaceOnUse">
<stop stop-color="#F39614"/>
<stop offset="1" stop-color="#FF6336"/>
</linearGradient>
<linearGradient id="paint36_linear" x1="-32.4168" y1="85.8956" x2="62.1575" y2="85.8956" gradientUnits="userSpaceOnUse">
<stop stop-color="#F39614"/>
<stop offset="1" stop-color="#FF6336"/>
</linearGradient>
<linearGradient id="paint37_linear" x1="-35.152" y1="80.0867" x2="59.443" y2="80.0867" gradientUnits="userSpaceOnUse">
<stop stop-color="#F39614"/>
<stop offset="1" stop-color="#FF6336"/>
</linearGradient>
<linearGradient id="paint38_linear" x1="-34.4459" y1="72.2058" x2="60.1439" y2="72.2058" gradientUnits="userSpaceOnUse">
<stop stop-color="#F39614"/>
<stop offset="1" stop-color="#FF6336"/>
</linearGradient>
<linearGradient id="paint39_linear" x1="-30.3967" y1="62.8632" x2="64.2019" y2="62.8632" gradientUnits="userSpaceOnUse">
<stop stop-color="#F39614"/>
<stop offset="1" stop-color="#FF6336"/>
</linearGradient>
<linearGradient id="paint40_linear" x1="-23.2739" y1="52.7643" x2="71.3249" y2="52.7643" gradientUnits="userSpaceOnUse">
<stop stop-color="#F39614"/>
<stop offset="1" stop-color="#FF6336"/>
</linearGradient>
<linearGradient id="paint41_linear" x1="-13.6513" y1="42.6814" x2="80.9578" y2="42.6814" gradientUnits="userSpaceOnUse">
<stop stop-color="#F39614"/>
<stop offset="1" stop-color="#FF6336"/>
</linearGradient>
<linearGradient id="paint42_linear" x1="-2.24747" y1="33.383" x2="92.3409" y2="33.383" gradientUnits="userSpaceOnUse">
<stop stop-color="#F39614"/>
<stop offset="1" stop-color="#FF6336"/>
</linearGradient>
<linearGradient id="paint43_linear" x1="10.0528" y1="25.5906" x2="104.654" y2="25.5906" gradientUnits="userSpaceOnUse">
<stop stop-color="#F39614"/>
<stop offset="1" stop-color="#FF6336"/>
</linearGradient>
<linearGradient id="paint44_linear" x1="22.3267" y1="19.8801" x2="116.918" y2="19.8801" gradientUnits="userSpaceOnUse">
<stop stop-color="#F39614"/>
<stop offset="1" stop-color="#FF6336"/>
</linearGradient>
<linearGradient id="paint45_linear" x1="33.6336" y1="16.6994" x2="128.2" y2="16.6994" gradientUnits="userSpaceOnUse">
<stop stop-color="#F39614"/>
<stop offset="1" stop-color="#FF6336"/>
</linearGradient>
<linearGradient id="paint46_linear" x1="43.0881" y1="16.2987" x2="137.707" y2="16.2987" gradientUnits="userSpaceOnUse">
<stop stop-color="#F39614"/>
<stop offset="1" stop-color="#FF6336"/>
</linearGradient>
<linearGradient id="paint47_linear" x1="50.0166" y1="18.6879" x2="144.602" y2="18.6879" gradientUnits="userSpaceOnUse">
<stop stop-color="#F39614"/>
<stop offset="1" stop-color="#FF6336"/>
</linearGradient>
<linearGradient id="paint48_linear" x1="53.8508" y1="23.6971" x2="148.47" y2="23.6971" gradientUnits="userSpaceOnUse">
<stop stop-color="#F39614"/>
<stop offset="1" stop-color="#FF6336"/>
</linearGradient>
<linearGradient id="paint49_linear" x1="34.9228" y1="54.039" x2="129.547" y2="54.039" gradientUnits="userSpaceOnUse">
<stop stop-color="#F39614"/>
<stop offset="1" stop-color="#FF6336"/>
</linearGradient>
<linearGradient id="paint50_linear" x1="25.2278" y1="63.6262" x2="119.808" y2="63.6262" gradientUnits="userSpaceOnUse">
<stop stop-color="#F39614"/>
<stop offset="1" stop-color="#FF6336"/>
</linearGradient>
<linearGradient id="paint51_linear" x1="13.7592" y1="72.0233" x2="108.354" y2="72.0233" gradientUnits="userSpaceOnUse">
<stop stop-color="#F39614"/>
<stop offset="1" stop-color="#FF6336"/>
</linearGradient>
<linearGradient id="paint52_linear" x1="1.83208" y1="78.2835" x2="96.4345" y2="78.2835" gradientUnits="userSpaceOnUse">
<stop stop-color="#F39614"/>
<stop offset="1" stop-color="#FF6336"/>
</linearGradient>
<linearGradient id="paint53_linear" x1="-9.20404" y1="81.6986" x2="85.3841" y2="81.6986" gradientUnits="userSpaceOnUse">
<stop stop-color="#F39614"/>
<stop offset="1" stop-color="#FF6336"/>
</linearGradient>
<linearGradient id="paint54_linear" x1="-18.1522" y1="81.8967" x2="76.4488" y2="81.8967" gradientUnits="userSpaceOnUse">
<stop stop-color="#F39614"/>
<stop offset="1" stop-color="#FF6336"/>
</linearGradient>
<linearGradient id="paint55_linear" x1="-23.9645" y1="78.8392" x2="70.6354" y2="78.8392" gradientUnits="userSpaceOnUse">
<stop stop-color="#F39614"/>
<stop offset="1" stop-color="#FF6336"/>
</linearGradient>
<linearGradient id="paint56_linear" x1="-26.0173" y1="72.8902" x2="68.5727" y2="72.8902" gradientUnits="userSpaceOnUse">
<stop stop-color="#F39614"/>
<stop offset="1" stop-color="#FF6336"/>
</linearGradient>
<linearGradient id="paint57_linear" x1="-24.0623" y1="64.7013" x2="70.5207" y2="64.7013" gradientUnits="userSpaceOnUse">
<stop stop-color="#F39614"/>
<stop offset="1" stop-color="#FF6336"/>
</linearGradient>
<linearGradient id="paint58_linear" x1="-18.344" y1="55.199" x2="76.2442" y2="55.199" gradientUnits="userSpaceOnUse">
<stop stop-color="#F39614"/>
<stop offset="1" stop-color="#FF6336"/>
</linearGradient>
<linearGradient id="paint59_linear" x1="-9.48116" y1="45.4476" x2="85.1215" y2="45.4476" gradientUnits="userSpaceOnUse">
<stop stop-color="#F39614"/>
<stop offset="1" stop-color="#FF6336"/>
</linearGradient>
<linearGradient id="paint60_linear" x1="1.53553" y1="36.5429" x2="96.1375" y2="36.5429" gradientUnits="userSpaceOnUse">
<stop stop-color="#F39614"/>
<stop offset="1" stop-color="#FF6336"/>
</linearGradient>
<linearGradient id="paint61_linear" x1="13.4535" y1="29.4788" x2="108.097" y2="29.4788" gradientUnits="userSpaceOnUse">
<stop stop-color="#F39614"/>
<stop offset="1" stop-color="#FF6336"/>
</linearGradient>
<clipPath id="clip0">
<rect width="87" height="109" fill="white"/>
</clipPath>
</defs>
</svg>
