<?xml version="1.0" encoding="UTF-8"?><svg id="Ebene_1" xmlns="http://www.w3.org/2000/svg" viewBox="0 0 342 78"><defs><style>.cls-1{fill:#291f4b;}</style></defs><path class="cls-1" d="M21.61,1.65h9.03V12.12h-7.51c-2.4,0-3.52,1.2-3.52,3.6v2.88h11.03v9.27h-11.03V60.13H7.95V27.86H1v-9.27H7.95v-3.36C7.95,6.68,12.5,1.65,21.61,1.65Z"/><path class="cls-1" d="M36.71,2.61h11.66V60.13h-11.66V2.61Z"/><path class="cls-1" d="M92.47,60.13h-11.26v-5.83h-.56c-2.4,4.23-5.99,6.79-11.5,6.79-7.99,0-13.74-5.43-13.74-15.66V18.59h11.66v25.09c0,4.55,2.32,6.87,5.99,6.87,4.55,0,7.75-3.6,7.75-10.07V18.59h11.66V60.13Z"/><path class="cls-1" d="M119.31,46.31l-8.39,13.82h-14.38l15.9-22.29-14.38-19.25h14.7l7.91,11.11,6.95-11.11h14.14l-14.22,19.73,16.06,21.81h-14.62l-9.67-13.82Z"/><path class="cls-1" d="M144.16,65.08l11.34-3.04c1.2,3.28,3.83,5.43,8.63,5.43,6.15,0,8.87-3.68,8.87-8.95v-5.75h-.48c-2.16,3.99-6.39,6.47-11.82,6.47-9.83,0-17.34-8.23-17.34-20.85s7.51-20.77,17.18-20.77c5.59,0,9.59,2.32,12.3,6.87h.48v-5.91h11.34V58.61c0,11.5-7.67,18.45-20.53,18.45-10.94,0-17.74-4.63-19.97-11.98Zm20.37-16.46c5.19,0,8.87-3.67,8.87-10.23s-3.68-10.07-8.87-10.07-9.03,3.6-9.03,10.07,3.83,10.23,9.03,10.23Z"/><path class="cls-1" d="M228.04,60.13h-11.26v-5.83h-.56c-2.4,4.23-5.99,6.79-11.5,6.79-7.99,0-13.74-5.43-13.74-15.66V18.59h11.66v25.09c0,4.55,2.32,6.87,5.99,6.87,4.55,0,7.75-3.6,7.75-10.07V18.59h11.66V60.13Z"/><path class="cls-1" d="M240.98,.93c4.15,0,6.87,2.8,6.87,6.63s-2.72,6.63-6.87,6.63-6.95-2.96-6.95-6.63,2.72-6.63,6.95-6.63Zm-5.83,17.66h11.66V60.13h-11.66V18.59Z"/><path class="cls-1" d="M252.72,39.36c0-13.74,7.83-21.73,17.34-21.73,5.75,0,9.67,2.48,12.46,6.79h.48V2.61h11.66V60.13h-11.42v-5.91h-.48c-2.88,4.63-7.03,6.87-12.7,6.87-9.59,0-17.34-7.99-17.34-21.73Zm21.33,11.18c5.75,0,9.35-4.07,9.35-11.18s-3.59-11.19-9.35-11.19c-5.11,0-9.11,4.07-9.11,11.19s3.99,11.18,9.11,11.18Z"/><path class="cls-1" d="M300.26,39.36c0-11.98,8.39-21.73,20.85-21.73s19.89,8.39,19.89,22.85v2.16h-28.68c.8,5.91,4.07,8.63,8.95,8.63,3.91,0,6.15-1.84,7.67-4.79l10.62,3.99c-2.72,6.31-7.99,10.63-18.29,10.63-12.38,0-21.01-8.23-21.01-21.73Zm28.68-3.91c-.56-4.63-3.12-8.07-7.83-8.07s-7.75,2.64-8.71,8.07h16.54Z"/></svg>