<svg width="208" height="54" viewBox="0 0 208 54" fill="none" xmlns="http://www.w3.org/2000/svg">
<g clip-path="url(#clip0)">
<path d="M72.9201 13.1234C70.2361 10.7141 67.7369 10.463 66.3608 10.463C61.1095 10.463 57.5552 14.3112 57.5552 19.603C57.5552 24.6776 61.2506 28.5982 66.3949 28.5982C69.2928 28.5982 71.5392 27.1207 72.9153 25.8267V30.1819C70.489 31.6207 67.9508 31.9828 66.2831 31.9828C61.8973 31.9828 59.1452 30.0032 57.7302 28.6706C54.9052 26.044 53.855 22.9877 53.855 19.603C53.855 15.1754 55.7027 12.1191 57.7302 10.2119C60.2295 7.875 63.1274 7.08316 66.463 7.08316C68.6753 7.08316 70.8099 7.47908 72.9104 8.8117V13.1234H72.9201Z" fill="white"/>
<path d="M84.8036 7.51288V21.9785C84.8036 23.2725 84.8376 24.8562 85.5621 26.1164C86.2866 27.338 87.9155 28.5982 90.0549 28.5982C92.1943 28.5982 93.8232 27.338 94.5477 26.1164C95.2722 24.8562 95.3111 23.2725 95.3111 21.9785V7.51288H99.0064V22.949C99.0064 24.8562 98.6077 27.1593 96.76 29.1728C95.491 30.5392 93.3515 31.978 90.0549 31.978C86.7582 31.978 84.6188 30.5392 83.3498 29.1728C81.5021 27.1593 81.1034 24.8562 81.1034 22.949V7.51288H84.8036Z" fill="white"/>
<path d="M112.125 7.51288V28.0574H119.224V31.5097H108.43V7.51288H112.125Z" fill="white"/>
<path d="M131.944 10.9651V31.5097H128.248V10.9651H122.705V7.51288H137.487V10.9651H131.944Z" fill="white"/>
<path d="M148.067 7.51288V21.9785C148.067 23.2725 148.101 24.8562 148.826 26.1164C149.55 27.338 151.179 28.5982 153.318 28.5982C155.458 28.5982 157.087 27.338 157.811 26.1164C158.536 24.8562 158.575 23.2725 158.575 21.9785V7.51288H162.27V22.949C162.27 24.8562 161.871 27.1593 160.024 29.1728C158.754 30.5392 156.615 31.978 153.318 31.978C150.022 31.978 147.882 30.5392 146.618 29.1728C144.771 27.1593 144.372 24.8562 144.372 22.949V7.51288H148.067Z" fill="white"/>
<path d="M176.006 7.51288C178.943 7.51288 180.825 7.875 182.38 8.91792C185.026 10.6803 185.244 13.5241 185.244 14.5671C185.244 18.0193 183.105 20.5397 179.881 21.2591L187.418 31.5145H182.964L176.045 21.6937H175.393V31.5145H171.698V7.51771H176.006V7.51288ZM175.388 18.5215H176.546C177.562 18.5215 181.69 18.4152 181.69 14.6009C181.69 11.221 178.466 10.8927 176.653 10.8927H175.384V18.5215H175.388Z" fill="white"/>
<path d="M208 10.9651H198.358V17.044H207.708V20.5011H198.358V28.0574H208V31.5097H194.663V7.51288H208V10.9651Z" fill="white"/>
<path d="M59.0431 43.4694C58.9458 43.228 58.7951 42.9962 58.552 42.7886C58.2067 42.5134 57.8469 42.3975 57.3753 42.3975C56.3591 42.3975 55.8339 43.0011 55.8339 43.6963C55.8339 44.0198 55.9506 44.5896 57.0106 45.0145L58.1095 45.4539C60.1225 46.265 60.6817 47.4045 60.6817 48.6406C60.6817 50.7071 59.2084 52.1218 57.1613 52.1218C55.902 52.1218 55.1483 51.6486 54.5892 51.0306C54.0008 50.3788 53.7383 49.6642 53.6751 48.9158L55.3283 48.5585C55.3283 49.0944 55.5227 49.5966 55.7853 49.9394C56.0965 50.3305 56.5536 50.5912 57.21 50.5912C58.2262 50.5912 59.009 49.8621 59.009 48.7709C59.009 47.6652 58.1581 47.2114 57.4385 46.9168L56.3931 46.4775C55.4936 46.1057 54.1662 45.3573 54.1662 43.7301C54.1662 42.2672 55.3137 40.867 57.3607 40.867C58.5374 40.867 59.2084 41.3063 59.5536 41.6009C59.8502 41.8616 60.1614 42.2334 60.3899 42.6921L59.0431 43.4694Z" fill="white"/>
<path d="M75.2492 46.492C75.2492 49.6786 72.8423 52.117 69.57 52.117C66.2976 52.117 63.8908 49.6786 63.8908 46.492C63.8908 43.3053 66.2976 40.867 69.57 40.867C72.8423 40.867 75.2492 43.3053 75.2492 46.492ZM73.5814 46.492C73.5814 44.0874 71.9136 42.3975 69.57 42.3975C67.2312 42.3975 65.5586 44.0874 65.5586 46.492C65.5586 48.8965 67.2263 50.5912 69.57 50.5912C71.9087 50.5912 73.5814 48.9013 73.5814 46.492Z" fill="white"/>
<path d="M84.2055 42.6245H80.4081V45.3718H84.0743V46.9313H80.4081V51.9045H78.7354V41.0649H84.2055V42.6245Z" fill="white"/>
<path d="M90.7696 42.6245V51.9045H89.1019V42.6245H86.5978V41.0649H93.2737V42.6245H90.7696Z" fill="white"/>
<path d="M96.9448 41.0649L99.8233 48.3122L102.77 40.5435L105.619 48.3122L108.6 41.0649H110.399L105.522 52.6046L102.673 44.9179L99.7941 52.6046L95.1409 41.0649H96.9448Z" fill="white"/>
<path d="M119.049 49.2876H114.381L113.185 51.9045H111.386L116.822 40.4276L121.995 51.9045H120.196L119.049 49.2876ZM118.373 47.728L116.754 44.0536L115.067 47.728H118.373Z" fill="white"/>
<path d="M126.955 41.0649C128.282 41.0649 129.133 41.2291 129.838 41.6974C131.034 42.4941 131.132 43.7784 131.132 44.2516C131.132 45.8112 130.164 46.9507 128.71 47.2742L132.114 51.9093H130.101L126.974 47.4721H126.678V51.9093H125.01V41.0649H126.955ZM126.678 46.0381H127.203C127.66 46.0381 129.527 45.9898 129.527 44.2661C129.527 42.7355 128.068 42.5907 127.252 42.5907H126.678V46.0381Z" fill="white"/>
<path d="M141.411 42.6245H137.054V45.3718H141.279V46.9313H137.054V50.345H141.411V51.9045H135.386V41.0649H141.411V42.6245Z" fill="white"/>
<path d="M156.309 46.265H160.811V46.3471C160.811 48.2012 160.257 49.7124 159.192 50.736C158.064 51.8273 156.722 52.117 155.477 52.117C153.887 52.117 152.759 51.6631 151.762 50.6395C150.698 49.5483 150.143 48.1046 150.143 46.5402C150.143 44.8503 150.829 43.3873 151.733 42.4941C152.667 41.5526 154.155 40.867 155.842 40.867C156.824 40.867 157.84 41.0794 158.691 41.5526C159.591 42.0547 160.15 42.6921 160.461 43.1797L159.134 44.1068C158.808 43.6529 158.317 43.1652 157.792 42.8707C157.189 42.5134 156.532 42.3975 155.861 42.3975C154.437 42.3975 153.518 42.9818 152.978 43.5177C152.258 44.2323 151.816 45.3863 151.816 46.5595C151.816 47.6507 152.224 48.7371 152.944 49.5C153.698 50.2967 154.631 50.5912 155.677 50.5912C156.625 50.5912 157.413 50.316 158.118 49.6304C158.725 49.0461 158.968 48.4136 159.037 47.7956H156.318V46.265H156.309Z" fill="white"/>
<path d="M166.495 41.0649C167.823 41.0649 168.674 41.2291 169.379 41.6974C170.575 42.4941 170.672 43.7784 170.672 44.2516C170.672 45.8112 169.704 46.9507 168.251 47.2742L171.654 51.9093H169.641L166.515 47.4721H166.223V51.9093H164.55V41.0649H166.495ZM166.213 46.0381H166.738C167.195 46.0381 169.063 45.9898 169.063 44.2661C169.063 42.7355 167.604 42.5907 166.787 42.5907H166.213V46.0381Z" fill="white"/>
<path d="M185.765 46.492C185.765 49.6786 183.358 52.117 180.085 52.117C176.813 52.117 174.406 49.6786 174.406 46.492C174.406 43.3053 176.813 40.867 180.085 40.867C183.358 40.867 185.765 43.3053 185.765 46.492ZM184.092 46.492C184.092 44.0874 182.419 42.3975 180.081 42.3975C177.737 42.3975 176.069 44.0874 176.069 46.492C176.069 48.8965 177.737 50.5912 180.081 50.5912C182.424 50.5912 184.092 48.9013 184.092 46.492Z" fill="white"/>
<path d="M191.167 41.0649V47.6025C191.167 48.1867 191.181 48.9013 191.512 49.471C191.838 50.0263 192.577 50.5912 193.544 50.5912C194.512 50.5912 195.246 50.0215 195.572 49.471C195.898 48.9013 195.917 48.1867 195.917 47.6025V41.0649H197.585V48.037C197.585 48.9013 197.405 49.9394 196.569 50.8519C195.995 51.47 195.032 52.1218 193.539 52.1218C192.047 52.1218 191.084 51.47 190.51 50.8519C189.674 49.9394 189.494 48.9013 189.494 48.037V41.0649H191.167Z" fill="white"/>
<path d="M204.251 41.0649C204.922 41.0649 205.856 41.1277 206.643 41.6492C207.562 42.2527 208.005 43.2908 208.005 44.2854C208.005 44.9179 207.84 45.8932 206.94 46.6561C206.075 47.39 205.073 47.5011 204.271 47.5011H203.517V51.9045H201.849V41.0649H204.251ZM203.512 45.9705H204.266C205.705 45.9705 206.395 45.2704 206.395 44.2661C206.395 43.6626 206.152 42.5907 204.251 42.5907H203.512V45.9705Z" fill="white"/>
<path d="M36.3312 47.2017C36.5257 47.2838 36.7542 47.1969 36.8417 46.9989C36.9244 46.8058 36.8369 46.5789 36.6375 46.492C36.5889 46.4678 36.5354 46.4582 36.4819 46.4582C36.3312 46.4582 36.1902 46.5451 36.127 46.6899C36.0395 46.8927 36.1318 47.1196 36.3312 47.2017Z" fill="url(#paint0_linear)"/>
<path d="M31.396 48.7516C31.7363 48.8965 32.135 48.742 32.2809 48.404C32.4268 48.066 32.2712 47.6701 31.9308 47.5252C31.8433 47.4866 31.7558 47.4721 31.6634 47.4721C31.4057 47.4721 31.1577 47.6218 31.0459 47.8777C30.8951 48.2157 31.0556 48.6068 31.396 48.7516Z" fill="url(#paint1_linear)"/>
<path d="M26.3197 49.1379C26.7719 49.331 27.2922 49.1234 27.4866 48.6744C27.6811 48.2253 27.4721 47.7087 27.0199 47.5156C26.908 47.4673 26.7865 47.4431 26.6698 47.4431C26.3246 47.4431 25.9988 47.6411 25.8529 47.9791C25.6633 48.4281 25.8724 48.9496 26.3197 49.1379Z" fill="url(#paint2_linear)"/>
<path d="M21.3504 48.375C21.8853 48.6019 22.5028 48.3557 22.7313 47.8294C22.9598 47.2983 22.7167 46.6851 22.1819 46.4582C22.0457 46.4002 21.9047 46.3712 21.7686 46.3712C21.3601 46.3712 20.976 46.6078 20.801 47.0038C20.5725 47.53 20.8156 48.1481 21.3504 48.375Z" fill="url(#paint3_linear)"/>
<path d="M16.7264 46.4968C17.3147 46.7479 17.9954 46.4775 18.2483 45.8932C18.5011 45.309 18.2288 44.633 17.6405 44.382C17.4897 44.3192 17.3341 44.2854 17.1834 44.2854C16.7361 44.2854 16.3082 44.5461 16.1186 44.9807C15.8706 45.5697 16.138 46.2505 16.7264 46.4968Z" fill="url(#paint4_linear)"/>
<path d="M12.6809 43.6191C13.3033 43.8847 14.018 43.5998 14.2855 42.9866C14.5529 42.3686 14.266 41.6588 13.6436 41.3932C13.4881 41.3257 13.3227 41.2919 13.1623 41.2919C12.6906 41.2919 12.2384 41.5671 12.0391 42.0258C11.7717 42.639 12.0585 43.3535 12.6809 43.6191Z" fill="url(#paint5_linear)"/>
<path d="M9.41344 39.882C10.0455 40.1524 10.7749 39.8627 11.0472 39.235C11.3195 38.6073 11.0277 37.8782 10.3956 37.6127C10.2352 37.5451 10.0699 37.5113 9.90453 37.5113C9.42316 37.5113 8.96124 37.7913 8.76189 38.2597C8.4896 38.8873 8.78134 39.6164 9.41344 39.882Z" fill="url(#paint6_linear)"/>
<path d="M7.07466 35.4882C7.69704 35.7538 8.41666 35.4689 8.68409 34.8509C8.95152 34.2328 8.66464 33.5182 8.04226 33.2527C7.88667 33.1851 7.72135 33.1513 7.56089 33.1513C7.08925 33.1513 6.63705 33.4265 6.4377 33.8852C6.17027 34.508 6.45715 35.2226 7.07466 35.4882Z" fill="url(#paint7_linear)"/>
<path d="M5.80074 30.6406C6.38908 30.8916 7.0698 30.6212 7.32264 30.037C7.57548 29.4528 7.30319 28.7768 6.71485 28.5209C6.56412 28.4582 6.40853 28.4292 6.25779 28.4292C5.81046 28.4292 5.38258 28.6899 5.19295 29.1245C4.94011 29.7135 5.2124 30.3895 5.80074 30.6406Z" fill="url(#paint8_linear)"/>
<path d="M5.65487 25.5901C6.18973 25.8171 6.8121 25.5756 7.04063 25.0445C7.26916 24.5134 7.02604 23.8954 6.49119 23.6685C6.35504 23.6105 6.21404 23.5815 6.07303 23.5815C5.6646 23.5815 5.27561 23.8181 5.10543 24.2141C4.87204 24.7452 5.12002 25.3632 5.65487 25.5901Z" fill="url(#paint9_linear)"/>
<path d="M6.63706 20.5687C7.08925 20.7618 7.61438 20.5542 7.80888 20.1052C8.00337 19.6561 7.79429 19.1347 7.34209 18.9415C7.2254 18.8932 7.1087 18.8691 6.98715 18.8691C6.64192 18.8691 6.31129 19.0719 6.16542 19.405C5.97579 19.8541 6.18486 20.3755 6.63706 20.5687Z" fill="url(#paint10_linear)"/>
<path d="M8.70841 15.8224C9.05363 15.9673 9.44748 15.8128 9.59821 15.47C9.74408 15.132 9.58849 14.7361 9.24326 14.5912C9.15574 14.5526 9.06822 14.5381 8.97583 14.5381C8.71327 14.5381 8.46529 14.6878 8.35346 14.9437C8.20759 15.2817 8.36804 15.6776 8.70841 15.8224Z" fill="url(#paint11_linear)"/>
<path d="M11.7814 11.5687C11.9807 11.6507 12.2093 11.5638 12.2919 11.3659C12.3794 11.1679 12.2871 10.941 12.0877 10.8589C12.0391 10.8396 11.9856 10.8251 11.9321 10.8251C11.7814 10.8251 11.6355 10.912 11.5723 11.0569C11.4945 11.2597 11.582 11.4866 11.7814 11.5687Z" fill="url(#paint12_linear)"/>
<path d="M42.8078 49.2006C42.9439 49.2586 43.1044 49.1958 43.1628 49.0606C43.2211 48.9254 43.1579 48.7661 43.0217 48.7081C42.9877 48.6937 42.9488 48.684 42.9148 48.684C42.8127 48.684 42.7106 48.7468 42.6668 48.8482C42.6084 48.9882 42.6717 49.1427 42.8078 49.2006Z" fill="url(#paint13_linear)"/>
<path d="M38.3636 51.6438C38.6116 51.75 38.8985 51.6341 39.0006 51.3927C39.1027 51.1513 38.9909 50.8664 38.7478 50.7602C38.6846 50.7312 38.6214 50.7216 38.5533 50.7216C38.3636 50.7216 38.1837 50.8326 38.1059 51.0113C38.0038 51.2575 38.1205 51.5376 38.3636 51.6438Z" fill="url(#paint14_linear)"/>
<path d="M33.5986 53.2323C33.9389 53.3772 34.3328 53.2226 34.4787 52.8847C34.6245 52.5467 34.4689 52.1556 34.1286 52.0107C34.0411 51.9721 33.9535 51.9576 33.866 51.9576C33.6083 51.9576 33.3603 52.1073 33.2534 52.3584C33.1026 52.6964 33.2582 53.0875 33.5986 53.2323Z" fill="url(#paint15_linear)"/>
<path d="M28.6633 53.9324C29.0815 54.1111 29.5629 53.9179 29.7428 53.5075C29.9227 53.0923 29.7282 52.6143 29.31 52.4356C29.2031 52.3922 29.0961 52.368 28.9843 52.368C28.6682 52.368 28.3619 52.5515 28.2306 52.8605C28.0507 53.2758 28.2452 53.7538 28.6633 53.9324Z" fill="url(#paint16_linear)"/>
<path d="M23.7135 53.7344C24.1949 53.9421 24.754 53.7199 24.9631 53.2419C25.1722 52.7639 24.9485 52.2087 24.4672 52.0011C24.3456 51.948 24.2192 51.9238 24.0928 51.9238C23.7232 51.9238 23.3731 52.1363 23.2224 52.4936C23.0085 52.9716 23.2321 53.5268 23.7135 53.7344Z" fill="url(#paint17_linear)"/>
<path d="M18.9144 52.6384C19.4492 52.8653 20.0668 52.6239 20.2953 52.0928C20.5238 51.5617 20.2807 50.9485 19.7458 50.7216C19.6097 50.6636 19.4687 50.6347 19.3326 50.6347C18.9241 50.6347 18.5351 50.8712 18.365 51.2672C18.1316 51.7983 18.3795 52.4115 18.9144 52.6384Z" fill="url(#paint18_linear)"/>
<path d="M14.4168 50.6878C14.9905 50.934 15.6518 50.6685 15.8998 50.1035C16.1477 49.5338 15.8803 48.8771 15.3066 48.6309C15.1607 48.5681 15.01 48.5392 14.8592 48.5392C14.4216 48.5392 14.0035 48.7951 13.8235 49.2151C13.5756 49.7849 13.843 50.4464 14.4168 50.6878Z" fill="url(#paint19_linear)"/>
<path d="M10.3664 47.9501C10.9694 48.206 11.6647 47.9308 11.9224 47.3321C12.1801 46.7334 11.9029 46.0429 11.3 45.787C11.1493 45.7194 10.9888 45.6904 10.8332 45.6904C10.3762 45.6904 9.93856 45.956 9.74407 46.405C9.48637 46.9989 9.76838 47.6942 10.3664 47.9501Z" fill="url(#paint20_linear)"/>
<path d="M6.89962 44.522C7.51713 44.7875 8.23676 44.5027 8.50418 43.8847C8.77161 43.2666 8.48473 42.5569 7.86236 42.2913C7.70676 42.2237 7.54145 42.1899 7.38099 42.1899C6.90934 42.1899 6.45715 42.4651 6.25779 42.9238C5.99523 43.5418 6.28211 44.2564 6.89962 44.522Z" fill="url(#paint21_linear)"/>
<path d="M4.11838 40.5145C4.74562 40.7849 5.47497 40.4952 5.74725 39.8675C6.01954 39.2446 5.72781 38.5204 5.10057 38.25C4.94011 38.1824 4.77479 38.1486 4.60947 38.1486C4.1281 38.1486 3.67105 38.4286 3.47169 38.8922C3.1994 39.5199 3.49114 40.2441 4.11838 40.5145Z" fill="url(#paint22_linear)"/>
<path d="M2.12483 36.0628C2.75206 36.3332 3.48141 36.0435 3.7537 35.4158C4.02599 34.7929 3.73425 34.0687 3.10701 33.7983C2.94656 33.7307 2.78124 33.6969 2.61592 33.6969C2.13455 33.6969 1.67749 33.9769 1.47814 34.4404C1.20099 35.0681 1.49272 35.7924 2.12483 36.0628Z" fill="url(#paint23_linear)"/>
<path d="M0.977327 31.3117C1.5997 31.5773 2.31933 31.2924 2.58675 30.6744C2.85418 30.0563 2.5673 29.3417 1.94493 29.0762C1.78933 29.0086 1.62401 28.9748 1.46356 28.9748C0.991914 28.9748 0.539719 29.25 0.340364 29.7087C0.0729372 30.3315 0.359814 31.0461 0.977327 31.3117Z" fill="url(#paint24_linear)"/>
<path d="M0.719626 26.4109C1.32255 26.6668 2.02273 26.3916 2.28043 25.7929C2.53813 25.1942 2.26098 24.4989 1.65805 24.243C1.50246 24.1754 1.34686 24.1465 1.18641 24.1465C0.724488 24.1465 0.28688 24.412 0.0923877 24.8611C-0.160453 25.4598 0.116699 26.155 0.719626 26.4109Z" fill="url(#paint25_linear)"/>
<path d="M1.35172 21.5247C1.92547 21.7709 2.59161 21.5054 2.83959 20.9356C3.08757 20.3659 2.82014 19.7044 2.24639 19.4582C2.10052 19.3954 1.94978 19.3664 1.79905 19.3664C1.36144 19.3664 0.943286 19.6223 0.758518 20.0472C0.51054 20.617 0.773105 21.2784 1.35172 21.5247Z" fill="url(#paint26_linear)"/>
<path d="M2.85417 16.8026C3.38903 17.0295 4.00654 16.7881 4.23993 16.257C4.46846 15.7259 4.22048 15.1078 3.68563 14.8809C3.54948 14.823 3.40848 14.794 3.26747 14.794C2.85904 14.794 2.47005 15.0306 2.29987 15.4265C2.0762 15.9576 2.31932 16.5756 2.85417 16.8026Z" fill="url(#paint27_linear)"/>
<path d="M5.19295 12.404C5.67432 12.6116 6.23834 12.3895 6.44742 11.9067C6.6565 11.4238 6.43284 10.8686 5.9466 10.6609C5.82505 10.6078 5.69377 10.5837 5.57221 10.5837C5.20267 10.5837 4.85259 10.7961 4.69699 11.1583C4.48791 11.6411 4.70672 12.1964 5.19295 12.404Z" fill="url(#paint28_linear)"/>
<path d="M8.29025 8.46405C8.7084 8.6427 9.19464 8.44957 9.37454 8.03433C9.55445 7.6191 9.35996 7.13626 8.9418 6.95762C8.83483 6.91416 8.72299 6.89002 8.61602 6.89002C8.29511 6.89002 7.98878 7.07832 7.8575 7.38734C7.67759 7.80257 7.87209 8.28541 8.29025 8.46405Z" fill="url(#paint29_linear)"/>
<path d="M12.0342 5.10354C12.3746 5.24839 12.7684 5.09389 12.9192 4.75591C13.065 4.41792 12.9094 4.02683 12.5691 3.88198C12.4816 3.84335 12.394 3.82887 12.3016 3.82887C12.0391 3.82887 11.796 3.97855 11.6841 4.23445C11.5383 4.5676 11.6939 4.95869 12.0342 5.10354Z" fill="url(#paint30_linear)"/>
<path d="M16.3131 2.42865C16.561 2.53487 16.8479 2.41899 16.9549 2.17274C17.0618 1.9265 16.9452 1.64163 16.6972 1.53541C16.634 1.50644 16.5708 1.49678 16.5027 1.49678C16.3131 1.49678 16.1331 1.60783 16.0554 1.79131C15.9532 2.03272 16.0651 2.31759 16.3131 2.42865Z" fill="url(#paint31_linear)"/>
<path d="M20.9955 0.516631C21.1316 0.574571 21.2921 0.511803 21.3504 0.376609C21.4088 0.241416 21.3456 0.0820816 21.2094 0.0241416C21.1754 0.00482833 21.1413 0 21.1024 0C20.9955 0 20.8982 0.0627683 20.8545 0.164163C20.7961 0.299356 20.8593 0.458691 20.9955 0.516631Z" fill="url(#paint32_linear)"/>
<path d="M34.7218 43.6191C34.8871 43.6915 35.0767 43.6143 35.1497 43.4501C35.2226 43.2859 35.1448 43.0976 34.9795 43.0252C34.9357 43.0059 34.892 43.0011 34.8531 43.0011C34.7266 43.0011 34.6051 43.0735 34.5565 43.199C34.4787 43.3584 34.5565 43.5515 34.7218 43.6191Z" fill="url(#paint33_linear)"/>
<path d="M29.665 44.9759C29.9567 45.1014 30.2971 44.9662 30.4235 44.6765C30.5499 44.3868 30.4138 44.0488 30.122 43.9233C30.0491 43.8895 29.9713 43.875 29.8935 43.875C29.6698 43.875 29.4559 44.0054 29.3635 44.2226C29.2371 44.5123 29.3684 44.8503 29.665 44.9759Z" fill="url(#paint34_linear)"/>
<path d="M24.5061 44.8986C24.9048 45.0676 25.3618 44.8841 25.532 44.493C25.7022 44.0971 25.5174 43.6432 25.1236 43.4743C25.0215 43.4308 24.9194 43.4115 24.8124 43.4115C24.5109 43.4115 24.2192 43.5853 24.0928 43.8798C23.9274 44.2709 24.1122 44.7248 24.5061 44.8986Z" fill="url(#paint35_linear)"/>
<path d="M19.634 43.4115C20.1105 43.6143 20.6648 43.397 20.8739 42.9238C21.0781 42.4506 20.8593 41.9002 20.378 41.6926C20.2564 41.6395 20.13 41.6153 20.0084 41.6153C19.6437 41.6153 19.2937 41.8278 19.1429 42.1803C18.9338 42.6583 19.1527 43.2087 19.634 43.4115Z" fill="url(#paint36_linear)"/>
<path d="M15.4087 40.6449C15.9484 40.8766 16.5756 40.6255 16.809 40.0896C17.0424 39.5536 16.7896 38.9308 16.2498 38.699C16.1137 38.6411 15.9678 38.6121 15.8317 38.6121C15.4184 38.6121 15.0245 38.8535 14.8544 39.2495C14.621 39.7951 14.869 40.4179 15.4087 40.6449Z" fill="url(#paint37_linear)"/>
<path d="M12.1509 36.8256C12.7344 37.0767 13.4151 36.8063 13.6631 36.2269C13.9159 35.6475 13.6436 34.9716 13.0602 34.7253C12.9094 34.6626 12.7587 34.6336 12.6031 34.6336C12.1558 34.6336 11.7328 34.8943 11.5431 35.324C11.2951 35.8986 11.5674 36.5746 12.1509 36.8256Z" fill="url(#paint38_linear)"/>
<path d="M10.099 32.2484C10.7117 32.5091 11.4264 32.2291 11.689 31.6207C11.9516 31.0123 11.6695 30.3026 11.0569 30.0418C10.9013 29.9742 10.7408 29.9453 10.5804 29.9453C10.1136 29.9453 9.66628 30.2157 9.46692 30.6744C9.20436 31.2779 9.48637 31.9828 10.099 32.2484Z" fill="url(#paint39_linear)"/>
<path d="M9.42316 27.2704C10.0504 27.5408 10.7797 27.2511 11.052 26.6282C11.3195 26.0054 11.0326 25.2811 10.4053 25.0107C10.2449 24.9431 10.0796 24.9093 9.91425 24.9093C9.43288 24.9093 8.98069 25.1894 8.77647 25.6529C8.50418 26.2758 8.79106 27 9.42316 27.2704Z" fill="url(#paint40_linear)"/>
<path d="M10.1525 22.2731C10.7798 22.5435 11.5091 22.2538 11.7814 21.6309C12.0537 21.008 11.7619 20.2838 11.1347 20.0134C10.9742 19.9458 10.8089 19.912 10.6436 19.912C10.1622 19.912 9.70518 20.1921 9.50583 20.6556C9.23354 21.2833 9.52528 22.0075 10.1525 22.2731Z" fill="url(#paint41_linear)"/>
<path d="M12.2433 17.6427C12.8608 17.9034 13.5707 17.6234 13.8333 17.015C14.0958 16.4067 13.8138 15.6969 13.2012 15.4362C13.0456 15.3686 12.8803 15.3396 12.7247 15.3396C12.253 15.3396 11.8106 15.61 11.6112 16.0687C11.3438 16.6722 11.6258 17.382 12.2433 17.6427Z" fill="url(#paint42_linear)"/>
<path d="M15.54 13.7318C16.1283 13.9828 16.8042 13.7124 17.057 13.133C17.3098 12.5488 17.0375 11.8777 16.4541 11.6266C16.3033 11.5638 16.1526 11.5349 15.997 11.5349C15.5497 11.5349 15.1218 11.7956 14.937 12.2301C14.6793 12.8047 14.9516 13.4807 15.54 13.7318Z" fill="url(#paint43_linear)"/>
<path d="M19.7799 10.8251C20.3196 11.0569 20.9517 10.8058 21.1851 10.2699C21.4185 9.73391 21.1656 9.10622 20.6259 8.87446C20.4898 8.81652 20.3439 8.78756 20.2029 8.78756C19.7896 8.78756 19.3958 9.02897 19.2207 9.42972C18.9922 9.97049 19.2402 10.5933 19.7799 10.8251Z" fill="url(#paint44_linear)"/>
<path d="M24.6617 9.1352C25.143 9.33799 25.6973 9.12071 25.9064 8.64271C26.1106 8.1647 25.8918 7.61427 25.4104 7.40666C25.2889 7.35354 25.1625 7.3294 25.0361 7.3294C24.6714 7.3294 24.3213 7.54185 24.1657 7.89915C23.9566 8.37715 24.1803 8.93241 24.6617 9.1352Z" fill="url(#paint45_linear)"/>
<path d="M29.8011 8.79238C30.1998 8.96137 30.6617 8.7779 30.8319 8.38198C31.0021 7.98605 30.8173 7.52736 30.4186 7.35837C30.3165 7.31491 30.2144 7.2956 30.1074 7.2956C29.806 7.2956 29.5142 7.47425 29.3878 7.76878C29.2176 8.1647 29.4024 8.61856 29.8011 8.79238Z" fill="url(#paint46_linear)"/>
<path d="M34.8239 9.78702C35.1205 9.91255 35.4608 9.77736 35.5873 9.48283C35.7137 9.1883 35.5775 8.85032 35.2858 8.72479C35.2129 8.69099 35.1302 8.6765 35.0573 8.6765C34.8336 8.6765 34.6197 8.80687 34.5224 9.02414C34.396 9.3235 34.5321 9.66148 34.8239 9.78702Z" fill="url(#paint47_linear)"/>
<path d="M39.3507 12.037C39.516 12.1094 39.7105 12.0322 39.7786 11.868C39.8515 11.7039 39.7737 11.5107 39.6084 11.4431C39.5646 11.4238 39.5209 11.419 39.482 11.419C39.3556 11.419 39.234 11.4914 39.1805 11.617C39.1076 11.7763 39.1854 11.9694 39.3507 12.037Z" fill="url(#paint48_linear)"/>
<path d="M42.7251 27.1255C42.9196 27.2076 43.1481 27.1207 43.2357 26.9227C43.3183 26.7296 43.2308 26.5027 43.0315 26.4158C42.9828 26.3965 42.9293 26.382 42.8759 26.382C42.7251 26.382 42.5841 26.4689 42.5209 26.6137C42.4383 26.8165 42.5306 27.0435 42.7251 27.1255Z" fill="url(#paint49_linear)"/>
<path d="M41.6165 32.1325C41.9569 32.2774 42.3556 32.1229 42.5015 31.7849C42.6473 31.4469 42.4917 31.051 42.1514 30.9061C42.0639 30.8675 41.9763 30.853 41.8888 30.853C41.6262 30.853 41.3783 31.0027 41.2713 31.2586C41.1206 31.5966 41.2762 31.9877 41.6165 32.1325Z" fill="url(#paint50_linear)"/>
<path d="M39.0152 36.4925C39.4674 36.6856 39.9877 36.478 40.1821 36.029C40.3766 35.5799 40.1676 35.0633 39.7154 34.8702C39.5987 34.8219 39.482 34.7977 39.3653 34.7977C39.0201 34.7977 38.6943 35.0005 38.5484 35.3337C38.3588 35.7779 38.5679 36.2994 39.0152 36.4925Z" fill="url(#paint51_linear)"/>
<path d="M35.1983 39.742C35.7331 39.9689 36.3507 39.7226 36.5792 39.1964C36.8077 38.6652 36.5597 38.052 36.0297 37.8251C35.8936 37.7672 35.7526 37.7382 35.6164 37.7382C35.208 37.7382 34.819 37.9748 34.6488 38.3707C34.4154 38.9018 34.6634 39.515 35.1983 39.742Z" fill="url(#paint52_linear)"/>
<path d="M30.5742 41.5284C31.1626 41.7795 31.8433 41.5091 32.0961 40.9249C32.349 40.3407 32.0767 39.6647 31.4932 39.4136C31.3425 39.3509 31.1869 39.3219 31.0361 39.3219C30.5888 39.3219 30.1609 39.5826 29.9713 40.0172C29.7136 40.6062 29.9859 41.2774 30.5742 41.5284Z" fill="url(#paint53_linear)"/>
<path d="M25.6633 41.6878C26.2808 41.9533 27.0004 41.6685 27.2678 41.0504C27.5353 40.4372 27.2484 39.7226 26.626 39.4571C26.4704 39.3895 26.3051 39.3605 26.1446 39.3605C25.673 39.3605 25.2208 39.6357 25.0215 40.0944C24.7589 40.7076 25.0409 41.4222 25.6633 41.6878Z" fill="url(#paint54_linear)"/>
<path d="M21.0101 40.1958C21.6422 40.4662 22.3764 40.1765 22.6438 39.5488C22.9161 38.9211 22.6244 38.1969 21.9923 37.9265C21.8318 37.8589 21.6665 37.8251 21.5012 37.8251C21.0198 37.8251 20.5579 38.1052 20.3585 38.5735C20.0862 39.1964 20.378 39.9254 21.0101 40.1958Z" fill="url(#paint55_linear)"/>
<path d="M17.1396 37.2264C17.762 37.492 18.4816 37.2071 18.7491 36.5891C19.0165 35.971 18.7296 35.2564 18.1072 34.9909C17.9517 34.9233 17.7863 34.8943 17.6259 34.8943C17.1494 34.8943 16.702 35.1695 16.5027 35.6282C16.2304 36.2462 16.5173 36.9608 17.1396 37.2264Z" fill="url(#paint56_linear)"/>
<path d="M14.4848 33.1127C15.0732 33.3637 15.7539 33.0933 16.0116 32.5091C16.2644 31.9249 15.9921 31.2489 15.4038 30.9979C15.2531 30.9351 15.0975 30.9013 14.9467 30.9013C14.4946 30.9013 14.0715 31.162 13.8819 31.5966C13.6242 32.1808 13.8965 32.8616 14.4848 33.1127Z" fill="url(#paint57_linear)"/>
<path d="M13.3471 28.3085C13.8819 28.5354 14.5043 28.294 14.7328 27.7629C14.9613 27.2318 14.7134 26.6137 14.1834 26.3868C14.0472 26.3289 13.9062 26.2999 13.7652 26.2999C13.3568 26.2999 12.9678 26.5365 12.7976 26.9324C12.5642 27.4635 12.8122 28.0815 13.3471 28.3085Z" fill="url(#paint58_linear)"/>
<path d="M13.8625 23.3305C14.3147 23.5236 14.8398 23.316 15.0343 22.867C15.2288 22.4179 15.0197 21.8965 14.5675 21.7033C14.4508 21.655 14.3341 21.6309 14.2125 21.6309C13.8673 21.6309 13.5367 21.8337 13.3908 22.1668C13.2012 22.6159 13.4103 23.1373 13.8625 23.3305Z" fill="url(#paint59_linear)"/>
<path d="M15.9824 18.7194C16.3276 18.8643 16.7215 18.7098 16.8722 18.3669C17.0181 18.029 16.8625 17.633 16.5173 17.4834C16.4298 17.4447 16.3422 17.4303 16.2498 17.4303C15.9873 17.4303 15.7393 17.5799 15.6275 17.8358C15.4816 18.1786 15.6421 18.5746 15.9824 18.7194Z" fill="url(#paint60_linear)"/>
<path d="M19.4784 14.9582C19.6778 15.0402 19.9063 14.9533 19.989 14.7554C20.0765 14.5622 19.9841 14.3305 19.7847 14.2484C19.7361 14.2291 19.6826 14.2146 19.6291 14.2146C19.4784 14.2146 19.3325 14.3015 19.2693 14.4464C19.1915 14.6491 19.2839 14.8761 19.4784 14.9582Z" fill="url(#paint61_linear)"/>
</g>
<defs>
<linearGradient id="paint0_linear" x1="-4.9294" y1="46.849" x2="42.0931" y2="46.849" gradientUnits="userSpaceOnUse">
<stop stop-color="#F39614"/>
<stop offset="1" stop-color="#FF6336"/>
</linearGradient>
<linearGradient id="paint1_linear" x1="-10.326" y1="48.1399" x2="36.7084" y2="48.1399" gradientUnits="userSpaceOnUse">
<stop stop-color="#F39614"/>
<stop offset="1" stop-color="#FF6336"/>
</linearGradient>
<linearGradient id="paint2_linear" x1="-14.9567" y1="48.3289" x2="32.0884" y2="48.3289" gradientUnits="userSpaceOnUse">
<stop stop-color="#F39614"/>
<stop offset="1" stop-color="#FF6336"/>
</linearGradient>
<linearGradient id="paint3_linear" x1="-18.5824" y1="47.4146" x2="28.4553" y2="47.4146" gradientUnits="userSpaceOnUse">
<stop stop-color="#F39614"/>
<stop offset="1" stop-color="#FF6336"/>
</linearGradient>
<linearGradient id="paint4_linear" x1="-21.0522" y1="45.4428" x2="25.9941" y2="45.4428" gradientUnits="userSpaceOnUse">
<stop stop-color="#F39614"/>
<stop offset="1" stop-color="#FF6336"/>
</linearGradient>
<linearGradient id="paint5_linear" x1="-22.2092" y1="42.5048" x2="24.8312" y2="42.5048" gradientUnits="userSpaceOnUse">
<stop stop-color="#F39614"/>
<stop offset="1" stop-color="#FF6336"/>
</linearGradient>
<linearGradient id="paint6_linear" x1="-22.0165" y1="38.7485" x2="25.032" y2="38.7485" gradientUnits="userSpaceOnUse">
<stop stop-color="#F39614"/>
<stop offset="1" stop-color="#FF6336"/>
</linearGradient>
<linearGradient id="paint7_linear" x1="-20.4812" y1="34.3707" x2="26.5615" y2="34.3707" gradientUnits="userSpaceOnUse">
<stop stop-color="#F39614"/>
<stop offset="1" stop-color="#FF6336"/>
</linearGradient>
<linearGradient id="paint8_linear" x1="-17.6728" y1="29.5836" x2="29.3625" y2="29.5836" gradientUnits="userSpaceOnUse">
<stop stop-color="#F39614"/>
<stop offset="1" stop-color="#FF6336"/>
</linearGradient>
<linearGradient id="paint9_linear" x1="-13.7421" y1="24.6291" x2="33.3034" y2="24.6291" gradientUnits="userSpaceOnUse">
<stop stop-color="#F39614"/>
<stop offset="1" stop-color="#FF6336"/>
</linearGradient>
<linearGradient id="paint10_linear" x1="-8.87371" y1="19.7562" x2="38.1575" y2="19.7562" gradientUnits="userSpaceOnUse">
<stop stop-color="#F39614"/>
<stop offset="1" stop-color="#FF6336"/>
</linearGradient>
<linearGradient id="paint11_linear" x1="-3.33088" y1="15.2074" x2="43.718" y2="15.2074" gradientUnits="userSpaceOnUse">
<stop stop-color="#F39614"/>
<stop offset="1" stop-color="#FF6336"/>
</linearGradient>
<linearGradient id="paint12_linear" x1="2.63175" y1="11.2142" x2="49.6734" y2="11.2142" gradientUnits="userSpaceOnUse">
<stop stop-color="#F39614"/>
<stop offset="1" stop-color="#FF6336"/>
</linearGradient>
<linearGradient id="paint13_linear" x1="-0.950042" y1="48.956" x2="46.1003" y2="48.956" gradientUnits="userSpaceOnUse">
<stop stop-color="#F39614"/>
<stop offset="1" stop-color="#FF6336"/>
</linearGradient>
<linearGradient id="paint14_linear" x1="-6.69727" y1="51.2012" x2="40.341" y2="51.2012" gradientUnits="userSpaceOnUse">
<stop stop-color="#F39614"/>
<stop offset="1" stop-color="#FF6336"/>
</linearGradient>
<linearGradient id="paint15_linear" x1="-12.0617" y1="52.6236" x2="34.9641" y2="52.6236" gradientUnits="userSpaceOnUse">
<stop stop-color="#F39614"/>
<stop offset="1" stop-color="#FF6336"/>
</linearGradient>
<linearGradient id="paint16_linear" x1="-16.9018" y1="53.1831" x2="30.1415" y2="53.1831" gradientUnits="userSpaceOnUse">
<stop stop-color="#F39614"/>
<stop offset="1" stop-color="#FF6336"/>
</linearGradient>
<linearGradient id="paint17_linear" x1="-21.011" y1="52.8654" x2="26.0257" y2="52.8654" gradientUnits="userSpaceOnUse">
<stop stop-color="#F39614"/>
<stop offset="1" stop-color="#FF6336"/>
</linearGradient>
<linearGradient id="paint18_linear" x1="-24.294" y1="51.6804" x2="22.7518" y2="51.6804" gradientUnits="userSpaceOnUse">
<stop stop-color="#F39614"/>
<stop offset="1" stop-color="#FF6336"/>
</linearGradient>
<linearGradient id="paint19_linear" x1="-26.6168" y1="49.6605" x2="20.4328" y2="49.6605" gradientUnits="userSpaceOnUse">
<stop stop-color="#F39614"/>
<stop offset="1" stop-color="#FF6336"/>
</linearGradient>
<linearGradient id="paint20_linear" x1="-27.8999" y1="46.8693" x2="19.1475" y2="46.8693" gradientUnits="userSpaceOnUse">
<stop stop-color="#F39614"/>
<stop offset="1" stop-color="#FF6336"/>
</linearGradient>
<linearGradient id="paint21_linear" x1="-28.1182" y1="43.405" x2="18.93" y2="43.405" gradientUnits="userSpaceOnUse">
<stop stop-color="#F39614"/>
<stop offset="1" stop-color="#FF6336"/>
</linearGradient>
<linearGradient id="paint22_linear" x1="-27.2636" y1="39.3842" x2="19.7779" y2="39.3842" gradientUnits="userSpaceOnUse">
<stop stop-color="#F39614"/>
<stop offset="1" stop-color="#FF6336"/>
</linearGradient>
<linearGradient id="paint23_linear" x1="-25.3625" y1="34.9311" x2="21.6831" y2="34.9311" gradientUnits="userSpaceOnUse">
<stop stop-color="#F39614"/>
<stop offset="1" stop-color="#FF6336"/>
</linearGradient>
<linearGradient id="paint24_linear" x1="-22.466" y1="30.1932" x2="24.5768" y2="30.1932" gradientUnits="userSpaceOnUse">
<stop stop-color="#F39614"/>
<stop offset="1" stop-color="#FF6336"/>
</linearGradient>
<linearGradient id="paint25_linear" x1="-18.6829" y1="25.3264" x2="28.3641" y2="25.3264" gradientUnits="userSpaceOnUse">
<stop stop-color="#F39614"/>
<stop offset="1" stop-color="#FF6336"/>
</linearGradient>
<linearGradient id="paint26_linear" x1="-14.1337" y1="20.49" x2="32.9111" y2="20.49" gradientUnits="userSpaceOnUse">
<stop stop-color="#F39614"/>
<stop offset="1" stop-color="#FF6336"/>
</linearGradient>
<linearGradient id="paint27_linear" x1="-8.9648" y1="15.8413" x2="38.0747" y2="15.8413" gradientUnits="userSpaceOnUse">
<stop stop-color="#F39614"/>
<stop offset="1" stop-color="#FF6336"/>
</linearGradient>
<linearGradient id="paint28_linear" x1="-3.34804" y1="11.5341" x2="43.7071" y2="11.5341" gradientUnits="userSpaceOnUse">
<stop stop-color="#F39614"/>
<stop offset="1" stop-color="#FF6336"/>
</linearGradient>
<linearGradient id="paint29_linear" x1="2.54391" y1="7.71151" x2="49.5764" y2="7.71151" gradientUnits="userSpaceOnUse">
<stop stop-color="#F39614"/>
<stop offset="1" stop-color="#FF6336"/>
</linearGradient>
<linearGradient id="paint30_linear" x1="8.50399" y1="4.49117" x2="55.5569" y2="4.49117" gradientUnits="userSpaceOnUse">
<stop stop-color="#F39614"/>
<stop offset="1" stop-color="#FF6336"/>
</linearGradient>
<linearGradient id="paint31_linear" x1="14.3475" y1="1.98043" x2="61.3793" y2="1.98043" gradientUnits="userSpaceOnUse">
<stop stop-color="#F39614"/>
<stop offset="1" stop-color="#FF6336"/>
</linearGradient>
<linearGradient id="paint32_linear" x1="19.8767" y1="0.269083" x2="66.9355" y2="0.269083" gradientUnits="userSpaceOnUse">
<stop stop-color="#F39614"/>
<stop offset="1" stop-color="#FF6336"/>
</linearGradient>
<linearGradient id="paint33_linear" x1="-3.47614" y1="43.3239" x2="43.5552" y2="43.3239" gradientUnits="userSpaceOnUse">
<stop stop-color="#F39614"/>
<stop offset="1" stop-color="#FF6336"/>
</linearGradient>
<linearGradient id="paint34_linear" x1="-8.85335" y1="44.4482" x2="38.1906" y2="44.4482" gradientUnits="userSpaceOnUse">
<stop stop-color="#F39614"/>
<stop offset="1" stop-color="#FF6336"/>
</linearGradient>
<linearGradient id="paint35_linear" x1="-13.1754" y1="44.183" x2="33.8684" y2="44.183" gradientUnits="userSpaceOnUse">
<stop stop-color="#F39614"/>
<stop offset="1" stop-color="#FF6336"/>
</linearGradient>
<linearGradient id="paint36_linear" x1="-16.1208" y1="42.5538" x2="30.9107" y2="42.5538" gradientUnits="userSpaceOnUse">
<stop stop-color="#F39614"/>
<stop offset="1" stop-color="#FF6336"/>
</linearGradient>
<linearGradient id="paint37_linear" x1="-17.481" y1="39.676" x2="29.5608" y2="39.676" gradientUnits="userSpaceOnUse">
<stop stop-color="#F39614"/>
<stop offset="1" stop-color="#FF6336"/>
</linearGradient>
<linearGradient id="paint38_linear" x1="-17.1298" y1="35.7717" x2="29.9094" y2="35.7717" gradientUnits="userSpaceOnUse">
<stop stop-color="#F39614"/>
<stop offset="1" stop-color="#FF6336"/>
</linearGradient>
<linearGradient id="paint39_linear" x1="-15.1162" y1="31.1432" x2="31.9275" y2="31.1432" gradientUnits="userSpaceOnUse">
<stop stop-color="#F39614"/>
<stop offset="1" stop-color="#FF6336"/>
</linearGradient>
<linearGradient id="paint40_linear" x1="-11.574" y1="26.1401" x2="35.4697" y2="26.1401" gradientUnits="userSpaceOnUse">
<stop stop-color="#F39614"/>
<stop offset="1" stop-color="#FF6336"/>
</linearGradient>
<linearGradient id="paint41_linear" x1="-6.78876" y1="21.1449" x2="40.2601" y2="21.1449" gradientUnits="userSpaceOnUse">
<stop stop-color="#F39614"/>
<stop offset="1" stop-color="#FF6336"/>
</linearGradient>
<linearGradient id="paint42_linear" x1="-1.11765" y1="16.5384" x2="45.9208" y2="16.5384" gradientUnits="userSpaceOnUse">
<stop stop-color="#F39614"/>
<stop offset="1" stop-color="#FF6336"/>
</linearGradient>
<linearGradient id="paint43_linear" x1="4.99923" y1="12.6779" x2="52.0442" y2="12.6779" gradientUnits="userSpaceOnUse">
<stop stop-color="#F39614"/>
<stop offset="1" stop-color="#FF6336"/>
</linearGradient>
<linearGradient id="paint44_linear" x1="11.103" y1="9.84887" x2="58.143" y2="9.84887" gradientUnits="userSpaceOnUse">
<stop stop-color="#F39614"/>
<stop offset="1" stop-color="#FF6336"/>
</linearGradient>
<linearGradient id="paint45_linear" x1="16.7259" y1="8.2731" x2="63.7534" y2="8.2731" gradientUnits="userSpaceOnUse">
<stop stop-color="#F39614"/>
<stop offset="1" stop-color="#FF6336"/>
</linearGradient>
<linearGradient id="paint46_linear" x1="21.4276" y1="8.0746" x2="68.4811" y2="8.0746" gradientUnits="userSpaceOnUse">
<stop stop-color="#F39614"/>
<stop offset="1" stop-color="#FF6336"/>
</linearGradient>
<linearGradient id="paint47_linear" x1="24.8731" y1="9.25822" x2="71.9102" y2="9.25822" gradientUnits="userSpaceOnUse">
<stop stop-color="#F39614"/>
<stop offset="1" stop-color="#FF6336"/>
</linearGradient>
<linearGradient id="paint48_linear" x1="26.78" y1="11.7398" x2="73.8336" y2="11.7398" gradientUnits="userSpaceOnUse">
<stop stop-color="#F39614"/>
<stop offset="1" stop-color="#FF6336"/>
</linearGradient>
<linearGradient id="paint49_linear" x1="17.3677" y1="26.7717" x2="64.4226" y2="26.7717" gradientUnits="userSpaceOnUse">
<stop stop-color="#F39614"/>
<stop offset="1" stop-color="#FF6336"/>
</linearGradient>
<linearGradient id="paint50_linear" x1="12.5456" y1="31.5213" x2="59.5801" y2="31.5213" gradientUnits="userSpaceOnUse">
<stop stop-color="#F39614"/>
<stop offset="1" stop-color="#FF6336"/>
</linearGradient>
<linearGradient id="paint51_linear" x1="6.84238" y1="35.6813" x2="53.8842" y2="35.6813" gradientUnits="userSpaceOnUse">
<stop stop-color="#F39614"/>
<stop offset="1" stop-color="#FF6336"/>
</linearGradient>
<linearGradient id="paint52_linear" x1="0.910987" y1="38.7826" x2="47.9566" y2="38.7826" gradientUnits="userSpaceOnUse">
<stop stop-color="#F39614"/>
<stop offset="1" stop-color="#FF6336"/>
</linearGradient>
<linearGradient id="paint53_linear" x1="-4.57731" y1="40.4746" x2="42.4613" y2="40.4746" gradientUnits="userSpaceOnUse">
<stop stop-color="#F39614"/>
<stop offset="1" stop-color="#FF6336"/>
</linearGradient>
<linearGradient id="paint54_linear" x1="-9.02717" y1="40.5727" x2="38.0178" y2="40.5727" gradientUnits="userSpaceOnUse">
<stop stop-color="#F39614"/>
<stop offset="1" stop-color="#FF6336"/>
</linearGradient>
<linearGradient id="paint55_linear" x1="-11.9175" y1="39.058" x2="35.1268" y2="39.058" gradientUnits="userSpaceOnUse">
<stop stop-color="#F39614"/>
<stop offset="1" stop-color="#FF6336"/>
</linearGradient>
<linearGradient id="paint56_linear" x1="-12.9383" y1="36.1108" x2="34.101" y2="36.1108" gradientUnits="userSpaceOnUse">
<stop stop-color="#F39614"/>
<stop offset="1" stop-color="#FF6336"/>
</linearGradient>
<linearGradient id="paint57_linear" x1="-11.9661" y1="32.0538" x2="35.0697" y2="32.0538" gradientUnits="userSpaceOnUse">
<stop stop-color="#F39614"/>
<stop offset="1" stop-color="#FF6336"/>
</linearGradient>
<linearGradient id="paint58_linear" x1="-9.12237" y1="27.3463" x2="37.916" y2="27.3463" gradientUnits="userSpaceOnUse">
<stop stop-color="#F39614"/>
<stop offset="1" stop-color="#FF6336"/>
</linearGradient>
<linearGradient id="paint59_linear" x1="-4.71498" y1="22.5154" x2="42.3307" y2="22.5154" gradientUnits="userSpaceOnUse">
<stop stop-color="#F39614"/>
<stop offset="1" stop-color="#FF6336"/>
</linearGradient>
<linearGradient id="paint60_linear" x1="0.76362" y1="18.1039" x2="47.809" y2="18.1039" gradientUnits="userSpaceOnUse">
<stop stop-color="#F39614"/>
<stop offset="1" stop-color="#FF6336"/>
</linearGradient>
<linearGradient id="paint61_linear" x1="6.69038" y1="14.6042" x2="53.7566" y2="14.6042" gradientUnits="userSpaceOnUse">
<stop stop-color="#F39614"/>
<stop offset="1" stop-color="#FF6336"/>
</linearGradient>
<clipPath id="clip0">
<rect width="208" height="54" fill="white"/>
</clipPath>
</defs>
</svg>
